<svg width="1200" height="420" viewBox="0 0 1200 420" xmlns="http://www.w3.org/2000/svg" role="img" aria-labelledby="title desc">
  <title id="title">ZeyWin Ads SDK for Unity</title>
  <desc id="desc">A polished product banner for the ZeyWin Ads Unity SDK.</desc>
  <defs>
    <linearGradient id="bg" x1="0" y1="0" x2="1" y2="1">
      <stop offset="0" stop-color="#061725"/>
      <stop offset="0.5" stop-color="#102b50"/>
      <stop offset="1" stop-color="#112415"/>
    </linearGradient>
    <linearGradient id="accent" x1="0" y1="0" x2="1" y2="0">
      <stop offset="0" stop-color="#40c9ff"/>
      <stop offset="0.45" stop-color="#47f59b"/>
      <stop offset="1" stop-color="#ffd166"/>
    </linearGradient>
    <filter id="shadow" x="-20%" y="-20%" width="140%" height="140%">
      <feDropShadow dx="0" dy="18" stdDeviation="18" flood-color="#000000" flood-opacity="0.34"/>
    </filter>
  </defs>
  <rect width="1200" height="420" rx="34" fill="url(#bg)"/>
  <path d="M0 314 C148 256 255 365 403 307 C559 245 661 129 834 166 C1008 203 1061 105 1200 132 L1200 420 L0 420 Z" fill="#17385f" opacity="0.42"/>
  <path d="M0 344 C177 276 270 390 454 332 C610 283 710 222 850 247 C1003 275 1083 224 1200 197" fill="none" stroke="url(#accent)" stroke-width="5" opacity="0.8"/>
  <g transform="translate(76 70)">
    <rect width="174" height="174" rx="28" fill="#0f253f" stroke="#5ee6a7" stroke-width="3" filter="url(#shadow)"/>
    <rect x="34" y="34" width="108" height="108" rx="18" fill="#f2f7ff"/>
    <circle cx="60" cy="61" r="13" fill="#56d364"/>
    <circle cx="114" cy="61" r="13" fill="#ffd166"/>
    <circle cx="60" cy="114" r="13" fill="#40c9ff"/>
    <circle cx="114" cy="114" r="13" fill="#5b7cfa"/>
    <path d="M52 86 H122" stroke="#0f253f" stroke-width="9" stroke-linecap="round"/>
    <path d="M86 52 V122" stroke="#0f253f" stroke-width="9" stroke-linecap="round"/>
  </g>
  <g transform="translate(300 82)">
    <text x="0" y="0" fill="#ffffff" font-family="Inter,Segoe UI,Arial,sans-serif" font-size="58" font-weight="800">ZeyWin Ads SDK</text>
    <text x="0" y="54" fill="#cfe4ff" font-family="Inter,Segoe UI,Arial,sans-serif" font-size="26" font-weight="500">Unity monetization, WebView offers, AdMob fallback, CrashGuard, fleet setup.</text>
    <g transform="translate(0 100)" font-family="Inter,Segoe UI,Arial,sans-serif" font-size="20" font-weight="700">
      <rect x="0" y="0" width="190" height="46" rx="23" fill="#0f253f" stroke="#40c9ff"/>
      <text x="24" y="30" fill="#dff7ff">Batchmode install</text>
      <rect x="210" y="0" width="164" height="46" rx="23" fill="#0f253f" stroke="#47f59b"/>
      <text x="234" y="30" fill="#e5fff0">1000+ games</text>
      <rect x="394" y="0" width="162" height="46" rx="23" fill="#0f253f" stroke="#ffd166"/>
      <text x="418" y="30" fill="#fff4cd">Git release</text>
    </g>
  </g>
  <g transform="translate(786 244)" filter="url(#shadow)">
    <rect width="330" height="92" rx="18" fill="#f7fbff"/>
    <text x="28" y="35" fill="#10243d" font-family="Inter,Segoe UI,Arial,sans-serif" font-size="20" font-weight="800">One command per game</text>
    <rect x="28" y="52" width="242" height="10" rx="5" fill="#d8e6f2"/>
    <rect x="28" y="70" width="178" height="10" rx="5" fill="#40c9ff"/>
    <circle cx="292" cy="62" r="22" fill="#47f59b"/>
    <path d="M281 62 L289 70 L304 52" fill="none" stroke="#ffffff" stroke-width="5" stroke-linecap="round" stroke-linejoin="round"/>
  </g>
</svg>
